Coordinates
version=1
nRows=26
nColumns=22
inDegrees=yes

Units are S.I. units (second, meters, Newtons, ...)
If the header above contains a line with 'inDegrees', this indicates whether rotational values are in degrees (yes) or radians (no).

endheader
time	pelvis_tilt	pelvis_list	pelvis_rotation	pelvis_tx	pelvis_ty	pelvis_tz	hip_flexion_r	hip_adduction_r	hip_rotation_r	knee_angle_r	ankle_angle_r	subtalar_angle_r	hip_flexion_l	hip_adduction_l	hip_rotation_l	knee_angle_l	ankle_angle_l	subtalar_angle_l	lumbar_extension	lumbar_bending	lumbar_rotation
      0.01000000	     -1.90741087	     -4.36471643	     -2.09595296	     -1.68476841	      1.01279873	     -0.05003374	      1.44521834	      2.78736685	     -2.16148768	    -12.77420397	      9.11378908	      0.82629159	     -2.62820233	     -5.95737811	    -11.71845083	     -7.88386484	     11.53214868	     -1.14169055	     -2.87215487	      0.05929628	     -0.42750092
      0.02000000	     -1.91495258	     -4.37405319	     -2.10741313	     -1.68469689	      1.01279399	     -0.04996633	      1.43305464	      2.80054080	     -2.15541172	    -12.74391514	      9.11405379	      0.84412914	     -2.62937848	     -5.96950028	    -11.73660007	     -7.87934306	     11.52839809	     -1.13511616	     -2.87095086	      0.07345470	     -0.45561575
      0.03000000	     -1.92413054	     -4.38644728	     -2.12301655	     -1.68462967	      1.01278863	     -0.04988544	      1.42305884	      2.81766161	     -2.14892995	    -12.71414612	      9.10735909	      0.85964318	     -2.62767633	     -5.98537728	    -11.75257976	     -7.87847339	     11.52787040	     -1.13068345	     -2.87250975	      0.09223311	     -0.47858362
      0.04000000	     -1.93607457	     -4.40068247	     -2.13651088	     -1.68456749	      1.01277945	     -0.04979139	      1.41471524	      2.83806349	     -2.14053866	    -12.68105229	      9.09857302	      0.87259400	     -2.62258000	     -6.00495248	    -11.77221358	     -7.87719264	     11.52986164	     -1.12782729	     -2.87593528	      0.11250219	     -0.50701265
      0.05000000	     -1.94867037	     -4.41662909	     -2.14922959	     -1.68450636	      1.01276990	     -0.04969611	      1.40645494	      2.86051239	     -2.13182443	    -12.64761419	      9.08797887	      0.88382174	     -2.61401428	     -6.02702774	    -11.79029868	     -7.88086548	     11.53339087	     -1.12535169	     -2.88144444	      0.13642842	     -0.53652887
      0.06000000	     -1.96119336	     -4.43116080	     -2.16150757	     -1.68445096	      1.01275916	     -0.04959582	      1.40083958	      2.88151213	     -2.12454985	    -12.61863556	      9.07759885	      0.89273374	     -2.60440253	     -6.04848626	    -11.80409906	     -7.88631280	     11.53883205	     -1.12264171	     -2.88979532	      0.16066215	     -0.56655977
      0.07000000	     -1.97160080	     -4.42938555	     -2.17940133	     -1.68440758	      1.01274973	     -0.04949298	      1.40430666	      2.88369029	     -2.12771512	    -12.60837334	      9.07782645	      0.89338282	     -2.60040116	     -6.05004308	    -11.80339467	     -7.88577547	     11.53923277	     -1.12225788	     -2.90451369	      0.16570209	     -0.57529223
      0.08000000	     -1.98658503	     -4.46327600	     -2.18120659	     -1.68433992	      1.01273775	     -0.04940665	      1.39083482	      2.92625486	     -2.11540049	    -12.56347596	      9.05638745	      0.90824039	     -2.57782990	     -6.09588274	    -11.81889055	     -7.91105031	     11.55181330	     -1.11396788	     -2.91081726	      0.22043074	     -0.62406882
      0.09000000	     -1.99727489	     -4.46353707	     -2.19628882	     -1.68428396	      1.01272622	     -0.04931633	      1.39468948	      2.92974783	     -2.11231055	    -12.55630830	      9.05456768	      0.91032540	     -2.57359844	     -6.09990477	    -11.82257027	     -7.91029594	     11.55446349	     -1.11183817	     -2.92421169	      0.23764498	     -0.64926113
      0.10000000	     -2.00822835	     -4.46037264	     -2.20813309	     -1.68423948	      1.01271420	     -0.04920251	      1.39920465	      2.93159866	     -2.11445766	    -12.54781369	      9.05523598	      0.91077259	     -2.56801037	     -6.10253757	    -11.82231408	     -7.90801067	     11.55471408	     -1.11129096	     -2.94126128	      0.24333450	     -0.65643205
      0.11000000	     -2.02679549	     -4.49439033	     -2.20609763	     -1.68418999	      1.01269229	     -0.04911324	      1.40039682	      2.97442988	     -2.11189798	    -12.52123327	      9.04300994	      0.92283999	     -2.53935479	     -6.14967133	    -11.82888717	     -7.93453271	     11.56622148	     -1.09979416	     -2.94913523	      0.30375776	     -0.69871315
      0.12000000	     -2.03770012	     -4.48920353	     -2.21845837	     -1.68414396	      1.01267878	     -0.04899691	      1.40631647	      2.97412606	     -2.11480939	    -12.51464946	      9.04313872	      0.92310377	     -2.53482880	     -6.14977857	    -11.82824350	     -7.93096107	     11.56713252	     -1.09932897	     -2.96562551	      0.31218775	     -0.70370389
      0.13000000	     -2.04890558	     -4.48436945	     -2.22962890	     -1.68409838	      1.01266431	     -0.04888342	      1.41286584	      2.97431520	     -2.11779469	    -12.50876069	      9.04342955	      0.92327648	     -2.53011048	     -6.14974215	    -11.82855788	     -7.92698901	     11.56758234	     -1.09874795	     -2.98114083	      0.32426380	     -0.70866727
      0.14000000	     -2.07420808	     -4.50360990	     -2.24228449	     -1.68403564	      1.01263040	     -0.04876039	      1.43996131	      3.00134619	     -2.12754304	    -12.51802140	      9.03944284	      0.92469187	     -2.51797842	     -6.17650454	    -11.84509781	     -7.91113373	     11.56681431	     -1.09363805	     -2.97523287	      0.36957895	     -0.72503018
      0.15000000	     -2.08564672	     -4.49778554	     -2.24765569	     -1.68399263	      1.01261855	     -0.04863778	      1.44613770	      3.00217736	     -2.12998437	    -12.51054660	      9.03969031	      0.92464356	     -2.51130314	     -6.17666469	    -11.84512034	     -7.90754659	     11.56719546	     -1.09326517	     -2.98934316	      0.37888494	     -0.72344109
      0.16000000	     -2.12366994	     -4.51625382	     -2.26148650	     -1.68391125	      1.01257368	     -0.04848912	      1.48075327	      3.03145545	     -2.13449915	    -12.50875384	      9.03358512	      0.92274142	     -2.48958367	     -6.20369127	    -11.85740266	     -7.88664224	     11.56142283	     -1.08904671	     -2.96195737	      0.41772213	     -0.70556959
      0.17000000	     -2.13326611	     -4.50978671	     -2.25876055	     -1.68384701	      1.01256873	     -0.04837949	      1.48594850	      3.03204492	     -2.13205386	    -12.50685971	      9.03313631	      0.92237388	     -2.48478820	     -6.20237476	    -11.85913258	     -7.88239569	     11.56137472	     -1.08880644	     -2.97137846	      0.42842855	     -0.70492372
      0.18000000	     -2.17866431	     -4.53011518	     -2.27168005	     -1.68376106	      1.01252296	     -0.04822528	      1.53128767	      3.06660752	     -2.09445731	    -12.51332502	      9.02322857	      0.91407829	     -2.45437755	     -6.23207282	    -11.86793940	     -7.86384198	     11.54418539	     -1.08492931	     -2.93136582	      0.47109367	     -0.69094260
      0.19000000	     -2.19184750	     -4.52814247	     -2.26250600	     -1.68366068	      1.01251637	     -0.04810762	      1.54292052	      3.07427230	     -2.08086193	    -12.52305341	      9.02166616	      0.91101488	     -2.45290382	     -6.23633097	    -11.87614826	     -7.84587077	     11.54472623	     -1.08466090	     -2.92675705	      0.48409272	     -0.70212890
      0.20000000	     -2.21123157	     -4.53417296	     -2.25645131	     -1.68354775	      1.01250191	     -0.04799920	      1.55898410	      3.09047218	     -2.06041027	    -12.52964729	      9.02315083	      0.90452330	     -2.44812631	     -6.24771027	    -11.87320041	     -7.82583247	     11.53246678	     -1.08220106	     -2.91155812	      0.51053830	     -0.70280815
      0.21000000	     -2.21743256	     -4.52818498	     -2.24171156	     -1.68344452	      1.01250103	     -0.04790462	      1.56071800	      3.09230552	     -2.05567501	    -12.53320597	      9.02294187	      0.90382054	     -2.44672761	     -6.24733020	    -11.87541755	     -7.82012584	     11.53172305	     -1.08198342	     -2.91342849	      0.51917493	     -0.70067452
      0.22000000	     -2.23876811	     -4.53364287	     -2.23181375	     -1.68333251	      1.01247626	     -0.04780019	      1.58463869	      3.10795026	     -2.03895283	    -12.55128934	      9.02633742	      0.89743923	     -2.44287246	     -6.25797460	    -11.86804585	     -7.79042057	     11.51961670	     -1.07915172	     -2.89435904	      0.54484325	     -0.72417473
      0.23000000	     -2.24464323	     -4.52700277	     -2.21904951	     -1.68321502	      1.01246765	     -0.04772673	      1.58589244	      3.10706388	     -2.03661119	    -12.55546825	      9.02648456	      0.89649337	     -2.44116845	     -6.25553578	    -11.86776514	     -7.78884527	     11.51833420	     -1.07889117	     -2.89163999	      0.55704946	     -0.72094313
      0.24000000	     -2.31881408	     -4.52828774	     -2.19671241	     -1.68312419	      1.01235958	     -0.04765847	      1.67668307	      3.11679241	     -2.06684683	    -12.59026987	      9.04179528	      0.87448574	     -2.36346535	     -6.26519712	    -11.81107925	     -7.78585060	     11.49458542	     -1.07775175	     -2.80769481	      0.58122015	     -0.74453849
      0.25000000	     -2.32227947	     -4.51984145	     -2.18705850	     -1.68300873	      1.01235047	     -0.04758723	      1.67733919	      3.11336549	     -2.06497408	    -12.59695151	      9.04093291	      0.87397789	     -2.36379025	     -6.26053009	    -11.81376138	     -7.78557632	     11.49626715	     -1.07825273	     -2.80541002	      0.59244711	     -0.74548237
      0.26000000	     -2.36227671	     -4.49369787	     -2.17481130	     -1.68293519	      1.01228044	     -0.04752596	      1.74475292	      3.08864658	     -2.11176353	    -12.65133957	      9.06275753	      0.85964060	     -2.31717515	     -6.23849996	    -11.80193404	     -7.79173671	     11.50379250	     -1.08868365	     -2.76311694	      0.58481751	     -0.76559339
